<svg xmlns="http://www.w3.org/2000/svg" viewBox="0 0 256 256">
  <defs>
    <linearGradient id="bg" x1="0%" y1="0%" x2="100%" y2="100%">
      <stop offset="0%" stop-color="#c35d42" />
      <stop offset="100%" stop-color="#7f3024" />
    </linearGradient>
  </defs>
  <rect width="256" height="256" rx="56" fill="url(#bg)" />
  <path d="M62 194c18-44 38-82 58-112 10-15 22-25 37-29 10-3 21-3 32 0-12 3-22 10-30 21-23 31-42 71-57 120H62Z" fill="#fbeee4" opacity=".92"/>
  <path d="M144 58c22 2 39 18 46 41-24-7-48 8-58 31-10 23-9 48-9 72h-18c-2-38 0-71 14-99 7-15 19-31 39-45Z" fill="#f7d7c7"/>
  <text x="128" y="220" text-anchor="middle" font-size="34" font-family="Avenir Next, Trebuchet MS, sans-serif" font-weight="700" fill="#fff4ed">AO</text>
</svg>
